<svg xmlns="http://www.w3.org/2000/svg" width="256" height="256" viewBox="0 0 16 16"><path fill="currentColor" d="M3.5 0a.5.5 0 0 0-.5.5v3C3 5.526 4.243 7.216 5.982 8 4.242 8.784 3 10.474 3 12.5v3a.5.5 0 0 0 .5.5h9a.5.5 0 0 0 .5-.5v-3c0-2.027-1.242-3.716-2.982-4.5C11.758 7.216 13 5.527 13 3.5v-3a.5.5 0 0 0-.5-.5h-9zM4 1h8v2.5a3.998 3.998 0 0 1-3.11 3.9.5.5 0 0 0-.388.493l.002.222a.5.5 0 0 0 .389.485A3.998 3.998 0 0 1 12 12.5V15H4v-2.5a3.997 3.997 0 0 1 3.11-3.9.5.5 0 0 0 .388-.487L7.5 7.89a.5.5 0 0 0-.39-.489A3.997 3.997 0 0 1 4 3.5V1zm2.5 2a.5.5 0 0 0-.5.5c0 1.099.901 2 2 2s2-.901 2-2a.5.5 0 0 0-.5-.5.5.5 0 0 0-.5.5c0 .558-.442 1-1 1s-1-.442-1-1a.5.5 0 0 0-.5-.5zM8 10.5c-1.099 0-2 .901-2 2a.5.5 0 0 0 .5.5.5.5 0 0 0 .5-.5c0-.558.442-1 1-1s1 .442 1 1a.5.5 0 0 0 .5.5.5.5 0 0 0 .5-.5c0-1.099-.901-2-2-2z" color="#000" style="-inkscape-stroke:none"/></svg>
