<svg xmlns="http://www.w3.org/2000/svg" width="256" height="256" viewBox="0 0 200 200" preserveAspectRatio="xMidYMid"><path d="M39.561.017c-.447.061-.88.28-1.208.632L23.197 16.88a2.062 2.062 0 0 0-.221 2.512l19.105 29.94a79.734 79.734 0 0 0-7.208 17.955l-33.314 8.01a2.039 2.039 0 0 0-1.558 2.04l.623 22.335a2.046 2.046 0 0 0 1.598 1.947l32.754 7.13c1.936 7.213 4.805 14.016 8.533 20.243l-18.027 29.623a2.05 2.05 0 0 0 .338 2.552l16.027 15.351a2.023 2.023 0 0 0 2.493.237l29.002-18.995a77.47 77.47 0 0 0 18.87 7.34l7.82 33.333a2.01 2.01 0 0 0 2.012 1.565l22.053-.631a2.017 2.017 0 0 0 1.91-1.618l7.182-33.82a77.269 77.269 0 0 0 18.961-8.72l29.612 18.481c.815.51 1.873.377 2.533-.329l15.156-16.232a2.055 2.055 0 0 0 .221-2.512l-11.104-17.416-3.403 1.197a1.174 1.174 0 0 1-1.35-.435s-7.054-9.844-16.157-22.559c-9.88 21.018-30.754 35.805-55.315 36.503-15.858.45-30.507-5.063-41.872-14.522l3.182-3.223c23.054 19.103 57.247 17.787 78.744-3.986 21.497-21.772 22.81-56.404 3.948-79.753l20.988-21.257a5.878 5.953 0 1 0-8.312-8.419l-20.988 21.257C124.98 22.902 90.787 24.218 69.29 45.991c-21.497 21.773-22.797 56.404-3.936 79.753l-3.234 3.263c-8.83-10.668-14.312-24.296-14.727-39.292-.72-26 13.974-48.803 35.676-59.443l-.467-16.509a77.365 77.365 0 0 0-11.39 5.486l-.013-.014L40.885.307a2.008 2.008 0 0 0-1.324-.29Zm71.003 40.436c11.924-.06 23.874 4.475 33.093 13.588a5.877 5.953 0 0 0 .792.803c18.012 18.673 17.925 48.404-.35 66.915-18.271 18.505-47.618 18.594-66.056.368a5.877 5.953 0 0 0-.792-.802c-18.012-18.674-17.926-48.405.35-66.915 9.136-9.253 21.04-13.897 32.963-13.957Zm.286 23.862c-6.028 0-12.059 2.308-16.624 6.932-9.131 9.248-9.131 24.426 0 33.674 9.13 9.248 24.117 9.248 33.248 0 9.131-9.248 9.131-24.426 0-33.674-4.565-4.624-10.596-6.932-16.624-6.932zm0 11.825c2.996 0 5.992 1.176 8.312 3.526a11.924 11.924 0 0 1 0 16.837c-4.64 4.698-11.985 4.699-16.624 0a11.924 11.924 0 0 1 0-16.837c2.32-2.35 5.316-3.526 8.312-3.526z" fill="currentColor"/></svg>
