<svg xmlns="http://www.w3.org/2000/svg" width="256" height="256" viewBox="0 0 166.472 215" fill="currentColor"><path d="M82.91.008a6.937 6.937 0 0 0-4.579 2.006L2.032 78.313a6.937 6.937 0 0 0 0 9.807l76.3 76.3a6.937 6.937 0 0 0 9.807 0l76.3-76.3a6.937 6.937 0 0 0 0-9.807l-76.3-76.3A6.937 6.937 0 0 0 82.91.009Zm.325 16.718 66.492 66.491-66.492 66.491-66.49-66.491ZM0 124.83v6.936a6.936 6.936 0 0 0 2.032 4.904l76.3 76.3a6.937 6.937 0 0 0 9.807 0l76.3-76.3a6.936 6.936 0 0 0 2.031-4.904 6.936 6.936 0 0 0 0-.325v-6.61h-6.936a6.936 6.936 0 0 0-4.904 2.031l-71.395 71.395-71.394-71.395a6.936 6.936 0 0 0-4.905-2.005v-.027z"/></svg>
