<svg xmlns="http://www.w3.org/2000/svg" xml:space="preserve" width="256" height="256" viewBox="0 0 307.2 307.2" style="clip-rule:evenodd;fill-rule:evenodd;stroke-linejoin:round;stroke-miterlimit:2"><path d="M1933.8 71a3.2 3.2 0 1 1 6.4 0 3.2 3.2 0 1 1-6.4 0zm6 0c0-1.545-1.25-2.8-2.8-2.8-1.55 0-2.8 1.255-2.8 2.8 0 1.104.9 2 2 2s2-.896 2-2c0-.662-.54-1.2-1.2-1.2-.66 0-1.2.538-1.2 1.2 0 .441.36.8.8.8.11 0 .2.09.2.2a.2.2 0 0 1-.2.2c-.66 0-1.2-.538-1.2-1.2 0-.883.72-1.6 1.6-1.6.88 0 1.6.717 1.6 1.6 0 1.325-1.07 2.4-2.4 2.4-.32 0-.62-.061-.9-.173.47.359 1.06.573 1.7.573 1.55 0 2.8-1.255 2.8-2.8z" fill="currentColor" transform="matrix(48 0 0 48 -92822.4 -3254.4)"/></svg>
