<svg xmlns="http://www.w3.org/2000/svg" width="256" height="256" viewBox="0 0 218.994 218.996" fill="currentColor"><path d="M58.008 0C25.994-.077-.077 25.994 0 58.008c.077 32.013 26.208 58.14 58.222 58.218l14.393.034-.031-.002h.027l30.058.069c.016 7.633.07 32.17.1 44.448.076 32.013 26.204 58.144 58.217 58.22 32.014.078 58.085-25.993 58.008-58.007-.077-32.013-26.208-58.14-58.222-58.217-3.752-.01-7.726-.018-13.583-.031l-30.86-.069c-.016-7.633-.07-32.17-.1-44.448C116.152 26.21 90.021.078 58.008.001Zm-.035 13.694c1.887.005 3.741.14 5.566.37v49.31H14.04a45.187 45.187 0 0 1-.347-5.401c-.06-24.615 19.665-44.338 44.278-44.279zm19.26 4.397c14.948 7.19 25.26 22.45 25.303 40.16.029 12.257.082 36.7.099 44.384-7.683-.018-32.123-.07-44.378-.1-17.774-.043-33.079-10.43-40.238-25.467h59.215V18.09Zm39.126 98.267c7.686.018 32.126.07 44.383.1 18.01.043 33.477 10.71 40.508 26.071h-58.97v58.611c-15.228-7.085-25.78-22.487-25.822-40.402-.03-12.256-.082-36.695-.1-44.378zm39.612 39.857h49.057a45.3 45.3 0 0 1 .272 4.805c.059 24.616-19.665 44.339-44.279 44.279a44.681 44.681 0 0 1-5.05-.306v-48.779Z"/></svg>
