<svg width="1em" height="1em" viewBox="0 0 256 256" fill="currentColor" xmlns="http://www.w3.org/2000/svg">
  <path d="M 173.22752,62.461663 V 22.262527 H 86.555173 v 73.066895 z"/>
  <path d="M 86.555173,22.262527 H 70.663365 L 12.194821,123.52785 86.555173,95.329422 Z"/>
  <path d="M 204.03433,50.772248 187.57362,22.262527 h -14.3461 v 40.199136 z"/>
  <path d="M 86.555173,95.329422 12.194821,123.52785 86.555173,170.28551 Z"/>
  <path d="M 86.555173,170.28551 H 173.22752 V 62.461663 L 86.549806,95.329422 Z"/>
  <path d="M 204.03433,50.772248 173.22752,62.461663 V 170.29625 h 45.83453 l 27.00158,-46.7684 z"/>
  <path d="m 173.22752,224.80928 h 14.3622 l 31.47233,-54.51303 h -45.83453 z"/>
  <path d="m 86.565907,170.29625 86.661613,54.51303 v -54.51303 z"/>
  <path d="m 86.555173,170.29625 v 54.51303 H 173.22752 L 86.565907,170.29625 Z"/>
  <path d="M 86.555173,170.28551 12.194821,123.52785 70.663365,224.80928 h 15.891808 v -54.51303 z"/>
</svg>
