<?xml version="1.0" encoding="UTF-8" standalone="no"?>
<!-- Generator: Adobe Illustrator 15.0.0, SVG Export Plug-In . SVG Version: 6.00 Build 0)  -->

<svg
   xmlns:dc="http://purl.org/dc/elements/1.1/"
   xmlns:cc="http://creativecommons.org/ns#"
   xmlns:rdf="http://www.w3.org/1999/02/22-rdf-syntax-ns#"
   xmlns:svg="http://www.w3.org/2000/svg"
   xmlns="http://www.w3.org/2000/svg"
   xmlns:sodipodi="http://sodipodi.sourceforge.net/DTD/sodipodi-0.dtd"
   xmlns:inkscape="http://www.inkscape.org/namespaces/inkscape"
   version="1.1"
   id="Ebene_1"
   x="0px"
   y="0px"
   width="95.773px"
   height="44.752px"
   viewBox="0 0 95.773 44.752"
   enable-background="new 0 0 95.773 44.752"
   xml:space="preserve"
   inkscape:version="0.91 r13725"
   sodipodi:docname="opensuse-regular-release-icon.svg"><metadata
     id="metadata9"><rdf:RDF><cc:Work
         rdf:about=""><dc:format>image/svg+xml</dc:format><dc:type
           rdf:resource="http://purl.org/dc/dcmitype/StillImage" /><dc:title /></cc:Work></rdf:RDF></metadata><defs
     id="defs7" /><sodipodi:namedview
     pagecolor="#173f4f"
     bordercolor="#666666"
     borderopacity="1"
     objecttolerance="10"
     gridtolerance="10"
     guidetolerance="10"
     inkscape:pageopacity="0"
     inkscape:pageshadow="2"
     inkscape:window-width="2035"
     inkscape:window-height="1061"
     id="namedview5"
     showgrid="false"
     inkscape:zoom="11.313709"
     inkscape:cx="50.7291"
     inkscape:cy="14.122717"
     inkscape:window-x="205"
     inkscape:window-y="55"
     inkscape:window-maximized="0"
     inkscape:current-layer="Ebene_1" /><path
     style="fill:none;fill-rule:evenodd;stroke:#000000;stroke-width:5.75723791;stroke-linecap:butt;stroke-linejoin:miter;stroke-miterlimit:4;stroke-dasharray:none;stroke-opacity:1"
     d="M 8.9022776,32.913886 C 23.971992,4.0650707 37.37884,15.497827 45.296063,32.161685"
     id="path3344"
     inkscape:connector-curvature="0"
     sodipodi:nodetypes="cc" /><path
     sodipodi:type="star"
     style="fill:#ffffff;stroke-width:5.69999981;stroke-linecap:butt;stroke-linejoin:miter;stroke-miterlimit:4;stroke-dasharray:none"
     id="path10512"
     sodipodi:sides="3"
     sodipodi:cx="90.311573"
     sodipodi:cy="36.497857"
     sodipodi:r1="7.3014593"
     sodipodi:r2="3.7005157"
     sodipodi:arg1="1.1309899"
     sodipodi:arg2="2.1781875"
     inkscape:flatsided="true"
     inkscape:rounded="0.028674"
     inkscape:randomized="0"
     d="m 93.42027,43.104465 c -0.328116,0.154394 -10.414892,-6.856346 -10.384543,-7.2177 0.03035,-0.361353 11.145217,-5.591388 11.442983,-5.384427 0.297767,0.20696 -0.730324,12.447734 -1.05844,12.602127 z"
     inkscape:transform-center-x="1.6648697"
     inkscape:transform-center-y="0.15712705" /><path
     style="fill:none;fill-opacity:1;stroke-width:5.69999981;stroke-linecap:butt;stroke-linejoin:miter;stroke-miterlimit:4;stroke-dasharray:none"
     d="M 8.9888567,32.925986 C 7.6957209,32.256052 6.5892345,31.659457 6.5299982,31.60022 c -0.07478,-0.07478 0.1658939,-0.606168 0.7873498,-1.738402 5.37637,-9.795234 11.056117,-15.475513 17.024683,-17.026277 4.41625,-1.147439 8.80795,0.0016 13.01304,3.40485 3.368763,2.726358 6.784261,7.329004 9.715218,13.091998 0.428503,0.842545 0.75972,1.551276 0.736038,1.574959 -0.0875,0.0875 -5.053126,2.4289 -5.084217,2.397316 -0.01773,-0.01801 -0.378418,-0.706357 -0.801522,-1.529651 -1.429141,-2.780884 -2.933157,-5.213277 -4.500203,-7.278023 -1.105323,-1.456379 -3.457066,-3.778651 -4.638128,-4.580006 -3.582967,-2.431058 -6.79228,-2.410304 -10.436094,0.06749 -3.259933,2.216753 -7.112072,7.109507 -10.278528,13.055163 -0.325064,0.610373 -0.62176,1.108564 -0.659324,1.107092 -0.03756,-0.0015 -1.126318,-0.550806 -2.4194543,-1.22074 z"
     id="path10555"
     inkscape:connector-curvature="0" /><path
     style="fill:#ffffff;fill-opacity:1;stroke-width:5.69999981;stroke-linecap:butt;stroke-linejoin:miter;stroke-miterlimit:4;stroke-dasharray:none"
     d="M 8.9888567,32.925986 C 7.6957209,32.256052 6.5892345,31.659457 6.5299982,31.60022 c -0.07478,-0.07478 0.1658939,-0.606168 0.7873498,-1.738402 5.37637,-9.795234 11.056117,-15.475513 17.024683,-17.026277 4.41625,-1.147439 8.80795,0.0016 13.01304,3.40485 3.368763,2.726358 6.784261,7.329004 9.715218,13.091998 0.428503,0.842545 0.75972,1.551276 0.736038,1.574959 -0.0875,0.0875 -5.053126,2.4289 -5.084217,2.397316 -0.01773,-0.01801 -0.378418,-0.706357 -0.801522,-1.529651 -1.429141,-2.780884 -2.933157,-5.213277 -4.500203,-7.278023 -1.105323,-1.456379 -3.457066,-3.778651 -4.638128,-4.580006 -3.582967,-2.431058 -6.79228,-2.410304 -10.436094,0.06749 -3.259933,2.216753 -7.112072,7.109507 -10.278528,13.055163 -0.325064,0.610373 -0.62176,1.108564 -0.659324,1.107092 -0.03756,-0.0015 -1.126318,-0.550806 -2.4194543,-1.22074 z"
     id="path10557"
     inkscape:connector-curvature="0" /><path
     style="fill:#ffffff;fill-opacity:1;stroke-width:5.69999981;stroke-linecap:butt;stroke-linejoin:miter;stroke-miterlimit:4;stroke-dasharray:none"
     d="m 51.716352,32.413255 c -1.293136,-0.669934 -2.399622,-1.266529 -2.458858,-1.325766 -0.07478,-0.07478 0.165894,-0.606168 0.787349,-1.738402 5.37637,-9.795234 11.056117,-15.475513 17.024683,-17.026277 4.41625,-1.147439 8.80795,0.0016 13.01304,3.40485 3.368763,2.726358 6.784261,7.329004 9.715218,13.091998 0.428503,0.842545 0.991739,2.015315 1.752504,3.5416 0.07823,0.175888 -5.042077,2.362608 -5.13946,2.187393 -0.780079,-1.432223 -1.339641,-2.463075 -1.762745,-3.286369 -1.429141,-2.780884 -2.933157,-5.213277 -4.500203,-7.278023 -1.105323,-1.456379 -3.457066,-3.778651 -4.638128,-4.580006 -3.582967,-2.431058 -6.79228,-2.410304 -10.436094,0.06749 -3.259933,2.216753 -7.112072,7.109507 -10.278528,13.055163 -0.325064,0.610373 -0.62176,1.108564 -0.659324,1.107092 -0.03756,-0.0015 -1.126318,-0.550806 -2.419454,-1.220743 z"
     id="path10557-8"
     inkscape:connector-curvature="0"
     sodipodi:nodetypes="ssssssccssssscs" /><rect
     style="fill:#ffffff;fill-opacity:1;stroke-width:5.69999981;stroke-linecap:butt;stroke-linejoin:miter;stroke-miterlimit:4;stroke-dasharray:none"
     id="rect3339"
     width="8.2882986"
     height="5.6845675"
     x="2.2862644"
     y="35.883759" /><rect
     style="fill:#ffffff;fill-opacity:1;stroke-width:5.69999981;stroke-linecap:butt;stroke-linejoin:miter;stroke-miterlimit:4;stroke-dasharray:none"
     id="rect3339-3"
     width="8.2882986"
     height="2.0196416"
     x="2.2819467"
     y="42.365166" /><rect
     style="fill:#ffffff;fill-opacity:1;stroke-width:5.69999981;stroke-linecap:butt;stroke-linejoin:miter;stroke-miterlimit:4;stroke-dasharray:none"
     id="rect3339-7"
     width="8.2882986"
     height="5.6845675"
     x="44.345154"
     y="35.919983" /><rect
     style="fill:#ffffff;fill-opacity:1;stroke-width:5.69999981;stroke-linecap:butt;stroke-linejoin:miter;stroke-miterlimit:4;stroke-dasharray:none"
     id="rect3339-3-3"
     width="8.2882986"
     height="2.0196416"
     x="44.340836"
     y="42.40139" /></svg>