<svg width="701" height="106" viewBox="0 0 701 106" fill="none" xmlns="http://www.w3.org/2000/svg">
<path fill-rule="evenodd" clip-rule="evenodd" d="M177.225 17.9316C175.043 17.853 172.975 18.6239 171.394 20.1066C169.813 21.5893 168.88 23.5978 168.814 25.7728C168.663 30.2672 172.182 34.0482 176.666 34.2136C178.847 34.2795 180.926 33.5087 182.516 32.026C184.104 30.5364 185.017 28.5266 185.086 26.3598C185.238 21.8666 181.72 18.0909 177.225 17.9315V17.9316ZM178.557 26.835C176.56 26.835 174.946 25.7545 174.946 24.43C174.946 23.093 176.56 22.0182 178.557 22.0182C180.554 22.0182 182.171 23.093 182.171 24.43C182.171 25.7544 180.552 26.835 178.557 26.835ZM197.532 36.5403C197.591 36.4947 197.727 36.3749 197.709 36.2641C197.258 33.4447 193.058 19.7718 189.878 16.4838C189.002 15.5882 188.301 14.7052 186.881 13.8743C175.38 7.17241 148.094 3.12793 146.816 2.94278C146.816 2.94278 146.688 2.91604 146.599 3.00288C146.53 3.07034 146.517 3.20049 146.517 3.20049C146.517 3.20049 146.412 8.85401 146.395 9.48612C143.609 8.55005 123.351 2.00665 104.362 1.34773C88.2578 0.781454 64.8047 -1.30101 33.7252 17.8077L32.8064 18.3797C18.1849 27.4999 8.09017 38.7471 2.8135 51.8129C1.15855 55.9247 -1.06722 65.2023 1.13893 73.9323C2.0889 77.7483 3.86054 81.5831 6.24927 85.0148C11.6485 92.7703 20.7087 97.9166 30.4641 98.7857C44.2383 100.018 54.6684 93.8314 58.3781 82.2473C60.9287 74.2546 58.3781 62.527 48.6003 56.544C40.6471 51.674 32.0949 52.7811 27.1339 56.0632C22.8303 58.9166 20.3931 63.3509 20.4359 68.221C20.5353 76.8596 27.9767 81.4509 33.3271 81.4648C34.8815 81.4648 36.4428 81.1944 38.2028 80.6212C38.8292 80.4305 39.4186 80.1936 40.0681 79.7914L40.2715 79.6723L40.3998 79.5868L40.3569 79.6122C41.5761 78.7813 42.31 77.4304 42.31 75.9812C42.31 75.586 42.2546 75.1849 42.1412 74.7816C41.5091 72.594 39.3481 71.2707 37.1084 71.6787L36.8056 71.7503L36.3965 71.8751L35.8025 72.0797C34.5705 72.3825 33.6483 72.409 33.4507 72.416C32.8243 72.3755 29.7445 71.4533 29.7445 68.0799V68.0337C29.7445 66.7948 30.2415 65.9258 30.5153 65.4507C31.4734 63.9484 34.0967 62.4738 37.6409 62.7823C42.2925 63.1845 45.6462 65.5698 47.8674 70.07C49.9291 74.2535 49.3894 79.3997 46.4772 83.1694C43.5845 86.9046 38.435 88.4924 31.5868 87.7551C24.6806 86.9912 18.8432 83.0169 15.5729 76.8308C12.3729 70.7832 12.1984 63.6134 15.121 58.1055C22.1116 44.9079 35.3164 45.0456 42.5567 46.2969C53.2708 48.1552 65.4596 58.0382 69.7828 69.4508C70.4808 71.2699 70.8367 72.7121 71.1476 74.0307L71.6145 76.0011L83.7189 81.9111C83.9789 82.038 84.0668 82.081 84.1708 82.0036C84.2956 81.9107 84.2242 81.6546 84.2242 81.6546C84.1491 81.3841 83.9734 81.1345 83.6938 77.7473C83.4637 74.7414 82.9957 66.5119 87.1388 62.4339C88.7475 60.8402 91.1986 59.4176 93.1343 58.9622C101.068 57.0242 110.371 58.3613 119.166 68.5423C123.72 73.8006 125.94 76.1984 127.054 77.2725C127.054 77.2725 127.307 77.512 127.442 77.6226C127.589 77.7435 127.685 77.8453 127.9 77.9647C128.267 78.1692 143.025 84.9631 143.025 84.9631C143.025 84.9631 143.2 85.05 143.329 84.8903C143.456 84.7325 143.335 84.5748 143.335 84.5748C143.237 84.4627 133.979 72.4981 135.627 62.6465C136.925 54.7993 143.17 55.5103 151.809 56.4857C154.629 56.815 157.839 57.1837 161.163 57.2577C170.443 57.3166 180.439 55.6028 186.6 52.9078C190.586 51.1755 193.13 50.0221 194.723 48.5729C195.297 48.0979 195.594 47.3271 195.903 46.4973L196.121 45.9496C196.378 45.277 196.757 43.8601 196.924 43.0835C196.991 42.7414 197.069 42.4065 196.786 42.1879C196.528 41.988 195.933 42.3462 195.933 42.3462C193.228 43.9745 186.465 47.0579 180.142 47.1896C172.292 47.3479 156.385 39.2423 154.737 38.3863C153.634 35.7601 152.533 33.1331 151.414 30.5135C162.794 38.0114 172.232 42.1554 179.457 42.7946C187.501 43.5111 193.771 39.1227 196.492 37.2969C196.848 37.0601 197.204 36.7949 197.53 36.5401L197.532 36.5403ZM165.25 25.7543C165.366 22.6375 166.671 19.7449 168.95 17.6232C171.23 15.4945 174.204 14.3943 177.323 14.4937C183.754 14.7237 188.808 20.153 188.587 26.5771C188.466 29.6939 187.161 32.5865 184.888 34.7016C182.608 36.8431 179.64 37.9433 176.507 37.8381C170.083 37.6012 165.035 32.1846 165.25 25.7547V25.7543Z" fill="white"/>
<path d="M414.986 12.8669C403.053 12.8669 396.49 22.955 396.49 29.9296V38.883C396.49 49.1538 404.881 55.5178 412.663 55.5178H439.98C443.422 55.5178 444.142 57.7709 444.142 59.6719V65.4499C444.142 66.0629 444.018 71.6124 439.98 71.6124H402.723C399.021 71.6124 396.345 74.1882 396.345 77.7131V79.3102C396.345 82.8216 399.021 85.3813 402.723 85.3813H442.005C452.274 85.3813 458.899 78.2374 458.899 67.1704V57.5099C458.899 47.1181 451.433 42.4719 444.02 42.4719H417.141C413.095 42.4719 411.261 39.4363 411.261 37.2907V31.9564C411.261 28.5981 413.506 26.6515 417.432 26.6515H447.185C450.834 26.6515 453.579 24.03 453.579 20.5643V18.9699C453.579 15.4907 450.788 12.8665 447.061 12.8665H414.987L414.986 12.8669Z" fill="white"/>
<path d="M526.682 12.867C523.155 12.867 520.313 15.7332 520.313 19.2608V65.0034C520.313 68.6681 517.323 71.6123 513.704 71.6123H492.939C489.307 71.6123 486.333 68.6681 486.333 65.0034V19.2608C486.333 15.7332 483.467 12.867 479.942 12.867H477.933C474.355 12.867 471.54 15.6903 471.54 19.2608V66.7358C471.54 77.7891 480.238 85.8067 492.219 85.8067H514.425C526.39 85.8067 535.082 77.7917 535.082 66.7358V19.2608C535.082 15.6903 532.278 12.867 528.705 12.867H526.683H526.682Z" fill="white"/>
<path d="M566.434 12.8669C554.507 12.8669 547.924 22.955 547.924 29.9296V38.883C547.924 49.1538 556.332 55.5178 564.119 55.5178H591.428C594.875 55.5178 595.599 57.7709 595.599 59.6719V65.4499C595.599 66.0629 595.474 71.6124 591.428 71.6124H554.154C550.468 71.6124 547.777 74.1882 547.777 77.7131V79.3102C547.777 82.8216 550.468 85.3813 554.154 85.3813H593.45C603.721 85.3813 610.377 78.2374 610.377 67.1704V57.5099C610.377 47.1181 602.889 42.4719 595.476 42.4719H568.597C564.54 42.4719 562.712 39.4363 562.712 37.2907V31.9564C562.712 28.5981 564.957 26.6515 568.882 26.6515H598.652C602.293 26.6515 605.027 24.03 605.027 20.5643V18.9699C605.027 15.4907 602.239 12.8665 598.496 12.8665H566.436L566.434 12.8669Z" fill="white"/>
<path d="M629.242 12.867C625.701 12.867 623.026 15.4913 623.026 18.9705V79.3075C623.026 82.7706 625.639 85.3786 629.102 85.3786H677.184C680.887 85.3786 683.562 82.8189 683.562 79.3075V77.7104C683.562 74.1855 680.887 71.6097 677.184 71.6097H637.805V56.2488H666.66C670.354 56.2488 673.038 53.6568 673.038 50.1453V48.551C673.038 45.0233 670.354 42.4638 666.66 42.4638H637.805V26.6429H675.184C678.873 26.6429 681.561 24.0994 681.561 20.5557V18.9613C681.561 15.4337 678.873 12.8578 675.184 12.8578H629.242L629.242 12.867Z" fill="white"/>
<path d="M220.541 41.5876C214.516 41.5876 209.611 46.2769 209.611 52.0577V74.8075C209.611 80.6798 214.357 85.4631 220.176 85.4631H234.891C240.71 85.4631 245.456 80.6798 245.456 74.8075V52.0577C245.456 46.2795 240.549 41.5876 234.526 41.5876H220.541V41.5876ZM217.358 73.9041V53.1305C217.358 50.6945 219.358 48.7021 221.805 48.7021H233.27C235.663 48.7021 237.701 50.7402 237.701 53.1305V73.9041C237.701 76.3563 235.717 78.3486 233.27 78.3486H221.719C219.267 78.3486 217.358 76.3993 217.358 73.9041Z" fill="white"/>
<path d="M278.78 41.3187C274.537 41.3187 271.338 42.8351 268.77 44.0774C267.205 44.8275 265.85 45.4756 264.799 45.4756C264.323 45.4756 263.917 45.2605 263.702 44.9082L262.723 43.0368C262.478 42.5448 261.497 41.5822 260.284 41.5822H258.83C257.431 41.5822 256.313 42.8379 256.313 44.3705V102.074C256.313 103.884 257.741 105.309 259.547 105.309H260.806C262.599 105.309 264.057 103.868 264.057 102.074V82.9276C264.057 82.3603 264.425 81.7472 264.799 81.7472C265.85 81.7472 267.205 82.363 268.77 83.0809C271.338 84.2613 274.537 85.7159 278.78 85.7159H280.138C287.651 85.7159 292.324 81.4219 292.324 74.5252V52.4987C292.324 45.7068 287.551 41.3214 280.138 41.3214H278.78V41.3187ZM264.059 73.455V53.5849C264.059 50.8397 266.205 48.6967 268.947 48.6967H279.695C282.44 48.6967 284.583 50.8424 284.583 53.5849V73.455C284.583 76.1518 282.383 78.3433 279.695 78.3433H268.947C266.256 78.3433 264.059 76.1518 264.059 73.455V73.455Z" fill="white"/>
<path d="M314.084 41.5876C308.058 41.5876 303.168 46.2769 303.168 52.0578V74.6381C303.168 80.4943 307.921 85.4605 313.53 85.4605H328.714C330.591 85.4605 331.948 84.1591 331.948 82.3926V81.3977C331.948 79.6204 330.591 78.3459 328.714 78.3459H316.24C312.745 78.3459 310.901 76.6279 310.901 73.361V66.7547H333.403C337.022 66.7547 339.162 64.5472 339.162 60.8071V52.0523C339.162 46.2742 334.263 41.5823 328.262 41.5823H314.084V41.5876ZM310.903 53.0553C310.903 50.6166 312.82 48.7021 315.262 48.7021H327.082C329.518 48.7021 331.419 50.6166 331.419 53.0553V60.1052H310.901C310.903 59.1857 310.903 53.0553 310.903 53.0553Z" fill="white"/>
<path d="M370.441 41.3187C366.212 41.3187 363.02 42.8351 360.444 44.0639C358.842 44.8168 357.473 45.4756 356.354 45.4756C355.862 45.4756 355.663 45.4137 355.282 44.7523L354.392 43.1282C353.881 42.1011 353.012 41.5822 351.84 41.5822H350.59C349.079 41.5822 347.976 42.7599 347.976 44.3705V82.2204C347.976 84.0139 349.393 85.4551 351.219 85.4551H352.469C354.262 85.4551 355.725 83.9977 355.725 82.2204V53.5849C355.725 50.9015 357.917 48.6967 360.6 48.6967H371.352C374.044 48.6967 376.235 50.9015 376.235 53.5849V82.2204C376.235 84.0139 377.66 85.4551 379.47 85.4551H380.734C382.527 85.4551 383.984 83.9977 383.984 82.2204V52.496C383.984 45.7041 379.209 41.3187 371.791 41.3187H370.441V41.3187Z" fill="white"/>
<path d="M694.332 70.7878C697.607 70.7878 700.215 73.4497 700.215 76.7811C700.215 80.1609 697.604 82.7959 694.305 82.7959C691.03 82.7959 688.368 80.1609 688.368 76.7811C688.368 73.4524 691.03 70.7878 694.305 70.7878H694.332ZM694.305 71.718C691.67 71.718 689.514 73.982 689.514 76.7784C689.514 79.6285 691.67 81.8628 694.332 81.8628C696.994 81.8924 699.123 79.6284 699.123 76.8052C699.123 73.982 696.994 71.718 694.332 71.718H694.305V71.718ZM693.186 80.2657H692.122V73.5841C692.681 73.5034 693.213 73.4227 694.012 73.4227C695.026 73.4227 695.69 73.6352 696.088 73.9283C696.488 74.2187 696.703 74.6703 696.703 75.313C696.703 76.1895 696.117 76.7219 695.399 76.937V76.9934C695.985 77.0983 696.383 77.6307 696.518 78.6175C696.679 79.658 696.835 80.056 696.943 80.2684H695.824C695.663 80.056 695.504 79.443 695.372 78.5637C695.211 77.7141 694.786 77.3914 693.934 77.3914H693.189V80.2657H693.186ZM693.186 76.5632H693.958C694.837 76.5632 695.582 76.246 695.582 75.4178C695.582 74.8317 695.157 74.2455 693.958 74.2455C693.611 74.2455 693.372 74.2724 693.186 74.302V76.5632V76.5632Z" fill="white"/>
</svg>
