<?xml version="1.0" encoding="UTF-8" standalone="no"?>
<svg
   fill="currentColor"
   version="1.1"
   viewBox="0 0 95 95"
   id="svg234"
   sodipodi:docname="tumbleweed-icon.svg"
   inkscape:version="1.4 (e7c3feb100, 2024-10-09)"
   width="95"
   height="95"
   xmlns:inkscape="http://www.inkscape.org/namespaces/inkscape"
   xmlns:sodipodi="http://sodipodi.sourceforge.net/DTD/sodipodi-0.dtd"
   xmlns="http://www.w3.org/2000/svg"
   xmlns:svg="http://www.w3.org/2000/svg"
   xmlns:rdf="http://www.w3.org/1999/02/22-rdf-syntax-ns#"
   xmlns:cc="http://creativecommons.org/ns#"
   xmlns:dc="http://purl.org/dc/elements/1.1/">
  <defs
     id="defs238" />
  <sodipodi:namedview
     pagecolor="#ffffff"
     bordercolor="#666666"
     borderopacity="1"
     objecttolerance="10"
     gridtolerance="10"
     guidetolerance="10"
     inkscape:pageopacity="0"
     inkscape:pageshadow="2"
     inkscape:window-width="1920"
     inkscape:window-height="1131"
     id="namedview236"
     showgrid="false"
     showguides="true"
     inkscape:guide-bbox="true"
     inkscape:zoom="1.5898438"
     inkscape:cx="33.022112"
     inkscape:cy="174.23095"
     inkscape:window-x="0"
     inkscape:window-y="0"
     inkscape:window-maximized="1"
     inkscape:current-layer="svg234"
     inkscape:showpageshadow="0"
     inkscape:pagecheckerboard="0"
     inkscape:deskcolor="#505050">
    <sodipodi:guide
       position="110.74647,0.70491689"
       orientation="0,-1"
       id="guide285"
       inkscape:locked="false" />
    <sodipodi:guide
       position="138.76667,219.97404"
       orientation="0,-1"
       id="guide287"
       inkscape:locked="false" />
    <sodipodi:guide
       position="128.31469,206.40871"
       orientation="1,0"
       id="guide289"
       inkscape:locked="false" />
    <sodipodi:guide
       position="155.76304,4.9932996"
       orientation="0,-1"
       id="guide1"
       inkscape:locked="false" />
    <sodipodi:guide
       position="164.16707,220"
       orientation="0,1"
       id="guide2"
       inkscape:locked="false"
       inkscape:label=""
       inkscape:color="rgb(0,134,229)" />
  </sodipodi:namedview>
  <metadata
     id="metadata230">
    <rdf:RDF>
      <cc:Work
         rdf:about="">
        <dc:format>image/svg+xml</dc:format>
        <dc:type
           rdf:resource="http://purl.org/dc/dcmitype/StillImage" />
      </cc:Work>
    </rdf:RDF>
  </metadata>
  <path
     d="M 28.534841,8.4052604 C 16.750107,8.3770242 7.1529334,17.974099 7.1812703,29.758823 7.2095423,41.543557 16.82882,51.161523 28.613554,51.189854 l 5.298305,0.01268 -0.01066,-7.35e-4 c 0.0036,2.4e-5 0.0047,-1.2e-5 0.0083,0 h 0.0012 c 4.815139,0.01066 9.017222,0.02074 11.06499,0.02536 0.0059,2.809884 0.02571,11.842663 0.03661,16.36198 0.0282,11.784734 9.646296,21.403944 21.43103,21.432275 11.784734,0.02832 21.381905,-9.568829 21.353562,-21.353562 -0.0282,-11.784734 -9.647541,-21.402688 -21.432275,-21.431031 -1.381297,-0.0036 -2.84408,-0.0059 -5.00022,-0.01185 -4.89788,-0.01066 -9.284215,-0.02074 -11.360314,-0.02524 -0.0059,-2.809897 -0.02571,-11.842676 -0.03661,-16.361992 C 49.939247,18.052671 40.319954,8.4334515 28.535232,8.4051158 Z m -0.01268,5.0410186 c 0.694553,0.0018 1.377138,0.0515 2.048716,0.136394 V 31.734242 H 12.350044 c -0.08002,-0.65211 -0.126338,-1.314671 -0.127954,-1.988251 -0.02172,-9.061309 7.238962,-16.321684 16.299646,-16.29965 z m 7.08972,1.618447 c 5.502902,2.646668 9.298706,8.264106 9.314442,14.78396 0.01066,4.51165 0.03022,13.509475 0.03661,16.338057 -2.828404,-0.0059 -11.825032,-0.02571 -16.336149,-0.03661 -6.543173,-0.01576 -12.177042,-3.839622 -14.81232,-9.374884 H 35.61257 V 15.06469 Z m 14.40302,36.174041 c 2.829269,0.0071 11.826288,0.02583 16.338057,0.03661 6.63005,0.01588 12.323733,3.94278 14.911792,9.597171 H 59.556656 v 21.575864 c -5.605289,-2.608261 -9.489499,-8.277974 -9.505234,-14.872761 -0.01067,-4.511627 -0.03022,-13.508207 -0.03661,-16.336173 z m 14.581821,14.671909 h 18.05903 c 0.06339,0.581111 0.09835,1.171025 0.09977,1.768926 0.0218,9.061311 -7.238958,16.321681 -16.29963,16.299654 -0.629004,-7.35e-4 -1.248577,-0.04242 -1.858931,-0.112447 v -17.95637 z"
     stroke-width="0.368118"
     id="path1"
     style="fill:#ffffff;fill-opacity:1"
     inkscape:export-filename="../Gitddemaio/opensuse-landing-page/assets/images/tumbleweed-icon.png"
     inkscape:export-xdpi="96"
     inkscape:export-ydpi="96" />
</svg>
