<svg xmlns="http://www.w3.org/2000/svg" width="81.928" height="70.953" viewBox="0 0 81.928 70.953"><path fill="#878787" d="M37.538 38.194c-1.448-1.801-1.15-4.629.641-6.084a4.411 4.411 0 0 1 4.627-.57l3.018-5.324c-3.945-2.072-8.936-1.449-12.252 1.867a10.402 10.402 0 0 0-2.984 6.138l-3.838-1.137-6.857-2.029a22.814 22.814 0 0 0 0 8.839l6.857-2.029 3.838-1.135a10.422 10.422 0 0 0 2.984 6.139c.6.598 1.26 1.1 1.952 1.523l3.013-5.318a4.285 4.285 0 0 1-.999-.88"/><path fill="#3CB6AA" d="M62.036 31.056l-6.857 2.031-3.838 1.135a10.405 10.405 0 0 0-2.984-6.138 10.465 10.465 0 0 0-2.533-1.868l-3.019 5.325c.58.268 1.11.654 1.532 1.182a4.372 4.372 0 0 1-.653 6.152c-1.499 1.219-3.597 1.23-5.147.201l-3.013 5.318c4.025 2.459 9.351 1.959 12.833-1.523a10.402 10.402 0 0 0 2.984-6.141l3.838 1.137 6.857 2.031c.283-1.432.432-2.908.432-4.422 0-1.512-.149-2.989-.432-4.42"/><path fill="#878787" d="M17.798 35.476c0-12.794 10.371-23.167 23.166-23.167a23.05 23.05 0 0 1 11.125 2.844L60.675 0H20.481L-.001 35.476l20.479 35.471 8.774-15.484C22.4 51.438 17.798 43.997 17.798 35.476"/><path fill="#3CB6AA" d="M61.446 0h-.771l-8.586 15.153C59.265 19.09 64.13 26.714 64.13 35.476c0 12.795-10.371 23.168-23.166 23.168a23.058 23.058 0 0 1-11.711-3.182l-8.774 15.484.004.006h40.964l20.482-35.477L61.446 0z"/><path fill="#3CB6AA" d="M39.576 33.769c-1.026.803-1.172 2.061-.354 3.07.115.143.24.264.371.371l2.153-3.801c-.688-.281-1.485-.178-2.17.36"/><path fill="#3CB6AA" d="M41.745 33.409l-2.152 3.801c.805.666 1.868.688 2.713 0 .984-.801 1.135-2.111.357-3.102a2.236 2.236 0 0 0-.918-.699"/></svg>