<svg xmlns="http://www.w3.org/2000/svg" width="81.928" height="70.953" viewBox="0 0 81.928 70.953"><path fill="#878787" d="M19.473 47.776c-.709-.346-.955-.727-.947-1.512.043-3.928.021-7.857.021-12.002l18.367 8.26 5.035-8.684c-.39.076-.806.086-1.123-.039-6.897-2.734-13.771-5.522-20.65-8.299-.138-.056-.262-.145-.602-.336 6.844-2.769 13.514-5.43 20.147-8.182 1.254-.52 2.287-.521 3.543.006 2.269.952 4.547 1.883 6.823 2.816L61.499.126l-.054-.093H20.48L-.001 35.509l20.444 35.412 10.22-17.623a2697.758 2697.758 0 0 0-11.19-5.522m-.393-21.147l21.117 9.11-3.129 5.479-20.36-9.156c.808-1.851 1.569-3.597 2.372-5.433"/><path fill="#3CB6AA" d="M61.498.061L50.086 19.74c3.935 1.611 7.873 3.212 11.809 4.819.383.156.756.334 1.286.57-.451.218-.751.383-1.065.511-6.541 2.672-13.08 5.349-19.635 7.986a3.075 3.075 0 0 1-.531.148l-5.037 8.684c.19.084.379.17.569.256 1.033-1.789 2.028-3.512 3.166-5.479v20.871c-.338-.139-.629-.236-.901-.371l-9.082-4.502-10.222 17.623.037.064h40.965l20.482-35.477L61.498.061zm2.283 26.503c.793 1.806 1.561 3.556 2.381 5.429-6.802 3.061-13.543 6.094-20.365 9.162l-3.129-5.479 21.113-9.112m.512 19.749c-.004.414-.271 1.037-.598 1.201-7.086 3.557-14.197 7.062-21.443 10.646V37.292l3.133 5.422 18.848-8.477c.038.375.084.623.084.869.005 3.737.023 7.473-.024 11.207"/></svg>