<svg xmlns="http://www.w3.org/2000/svg" width="81.928" height="70.953"><path fill="#3CB6AA" d="M61.445 0h-.529l-10.17 17.691c-.674 3.251-2.467 6.04-4.322 8.804-.199.294-.646.489-1.08.595l-.598 1.041c3.15-.064 6.303-.061 9.451-.003 2.447.045 3.326 1.17 3.266 3.945-.057 2.592-.898 3.484-3.406 3.539-1.494.033-2.992.006-4.488.006-1.578 0-3.156.035-4.734-.01-1.885-.051-2.797-.674-3.117-2.209l-.873 1.52c.023.143.049.285.068.428a9.823 9.823 0 0 0-.725.715l-1.707 2.966c-.57 2.186.23 4.428 2.426 6.164-.371 3.098-1.725 6.455 1.77 8.414-.117 2.525-.229 4.879-.346 7.393-3.195 0-6.713.391-10.107-.09a10.305 10.305 0 0 1-5.049-2.207l-6.87 11.948.174.303h40.967l20.482-35.476L61.445 0zm-9.359 61.252c-.996-.035-1.994-.006-2.992-.004-.498.002-.996.004-1.494.002-3.537-.01-4.762-1.543-4.018-4.947.332-1.518 1.164-2.32 2.758-2.301 1.91.023 3.822 0 5.732.008 2.578.01 2.895 1.809 2.861 3.762-.031 1.855-.361 3.568-2.847 3.48m2.344-8.623c-1.578.035-3.158.006-4.736.006-1.58 0-3.158.037-4.736-.01-2.49-.07-3.322-.975-3.387-3.578-.07-2.742.793-3.838 3.328-3.902a207.26 207.26 0 0 1 9.721 0c2.598.059 3.395 1.043 3.363 3.846-.028 2.747-.825 3.579-3.553 3.638m2.111-8.67c-4.816.178-9.65.184-14.465-.018-2.57-.107-2.367-2.346-2.35-4.184.018-1.785.637-3.112 2.721-3.12 2.328-.006 4.658-.002 6.988-.002 2.246.002 4.492.006 6.738 0 2.012-.004 2.822 1.128 2.844 2.999.022 1.934.254 4.221-2.476 4.325"/><path fill="#878787" d="M22.986 50.049c-.129-4.234-.119-8.479.002-12.715.098-3.434 1.848-5.93 4.449-8.236 4.455-3.949 8.865-8.048 12.635-12.626 1.818-2.208 2.137-5.651 3.238-8.833 4.488-.62 7.684 2.161 7.73 7.261.008.974-.107 1.897-.295 2.791L60.916 0H20.48L-.002 35.477 20.305 70.65l6.867-11.949c-2.502-2.021-4.08-5.17-4.186-8.652"/><path fill="#3CB6AA" d="M40.498 32.402c.035.837.205 1.669.346 2.517l.873-1.52a7.43 7.43 0 0 1-.143-1.473c-.021-2.663.824-3.749 3.152-3.796h.02l.598-1.04a3.557 3.557 0 0 1-.391.074c-3.902.496-4.613 1.279-4.455 5.238"/></svg>