<svg xmlns="http://www.w3.org/2000/svg" width="81.928" height="70.953"><path fill="#3CB6AA" d="M52.654 18.462c-1.699 0-3.106 1.408-3.106 3.107a3.113 3.113 0 0 0 3.106 3.108 3.112 3.112 0 0 0 3.106-3.108c.001-1.699-1.407-3.107-3.106-3.107"/><path fill="#878787" d="M30.902 40.214c3.423 0 6.215-2.792 6.215-6.215s-2.792-6.215-6.215-6.215-6.216 2.792-6.216 6.215 2.793 6.215 6.216 6.215"/><path fill="#3CB6AA" d="M52.654 43.321c-1.699 0-3.106 1.408-3.106 3.107a3.112 3.112 0 0 0 3.106 3.107c1.724 0 3.106-1.408 3.106-3.107s-1.407-3.107-3.106-3.107"/><path fill="#878787" d="M28.645 49.536c-.341 0-.681-.268-.729-.607l-.557-3.713a12.017 12.017 0 0 1-1.82-.754l-2.865 2.161c-.123.121-.315.17-.486.17a.79.79 0 0 1-.51-.194c-.631-.582-3.495-3.181-3.495-3.885 0-.17.071-.314.17-.461.704-.923 1.432-1.82 2.136-2.768a12.953 12.953 0 0 1-.85-1.99l-3.689-.583c-.34-.048-.583-.364-.583-.704v-4.49c0-.316.243-.681.558-.729l3.764-.583c.193-.631.461-1.238.775-1.845-.679-.971-1.406-1.869-2.184-2.793a.903.903 0 0 1-.17-.484c0-.17.049-.34.17-.486.485-.656 3.205-3.593 3.908-3.593a.93.93 0 0 1 .511.17l2.791 2.185a12.482 12.482 0 0 1 1.87-.777c.121-1.214.242-2.549.557-3.739.099-.34.389-.582.729-.582h4.517c.338 0 .678.268.728.607l.558 3.714c.633.194 1.238.461 1.821.753l2.864-2.161a.744.744 0 0 1 .486-.17.79.79 0 0 1 .51.194c.631.583 3.496 3.205 3.496 3.885 0 .169-.074.314-.17.461-.705.947-1.433 1.821-2.113 2.768.316.655.607 1.311.826 1.99l1.26.19 3.666-6.384c-.047-.096-.102-.187-.144-.288-.485-.048-3.616-.388-3.616-.753V19.87c0-.364 3.131-.704 3.616-.753.194-.437.437-.873.728-1.262-.219-.486-1.237-2.938-1.237-3.35 0-.049.024-.122.097-.17.293-.146 2.889-1.699 3.01-1.699.316 0 2.138 2.403 2.379 2.767.099-.01.195-.012.293-.02L61.052 0h-40.57L-.001 35.476l20.396 35.326 12.212-21.266h-3.962z"/><path fill="#3CB6AA" d="M61.446 0h-.395l-8.834 15.384c.146-.013.291-.029.437-.029.243 0 .485.024.728.048.681-.947 1.408-1.894 2.234-2.719l.145-.048c.121 0 2.72 1.529 3.012 1.699a.213.213 0 0 1 .098.17c0 .437-1.021 2.865-1.24 3.35.291.389.535.825.729 1.262.485.049 3.617.389 3.617.753v3.399c0 .364-3.132.704-3.617.753-.194.46-.438.874-.729 1.262.22.484 1.24 2.913 1.24 3.35 0 .073-.025.121-.098.17-.292.17-2.891 1.723-3.012 1.723-.314 0-2.137-2.426-2.379-2.791-.242.024-.484.049-.728.049s-.485-.024-.729-.049c-.241.365-2.062 2.791-2.379 2.791-.121 0-2.717-1.553-3.01-1.723a.213.213 0 0 1-.097-.17c0-.413 1.019-2.865 1.237-3.35a6.107 6.107 0 0 1-.584-.975l-3.666 6.385 2.43.367c.34.072.583.389.583.729v4.491c0 .315-.243.68-.56.728l-3.762.583a11.043 11.043 0 0 1-.777 1.845c.681.972 1.408 1.869 2.186 2.793.096.146.17.291.17.484 0 .17-.049.34-.17.462-.486.655-3.205 3.617-3.908 3.617a.919.919 0 0 1-.511-.17l-2.791-2.185c-.347.18-.696.332-1.052.469l-.964 1.681c-.094.806-.213 1.615-.412 2.366-.098.34-.389.582-.727.582h-.555L20.395 70.802l.087.151h40.965l20.482-35.478L61.446 0zm.531 48.128c0 .364-3.132.704-3.617.753a5.954 5.954 0 0 1-.729 1.263c.22.484 1.24 2.912 1.24 3.35 0 .072-.025.122-.098.17-.292.17-2.891 1.724-3.012 1.724-.314 0-2.137-2.428-2.379-2.792-.242.024-.484.049-.728.049s-.485-.024-.729-.049c-.241.364-2.062 2.792-2.379 2.792-.121 0-2.717-1.554-3.01-1.724a.211.211 0 0 1-.097-.17c0-.412 1.019-2.865 1.237-3.35a5.993 5.993 0 0 1-.728-1.263c-.485-.049-3.618-.389-3.618-.753V44.73c0-.364 3.133-.705 3.618-.752.194-.438.437-.875.728-1.264-.219-.484-1.237-2.938-1.237-3.35a.21.21 0 0 1 .097-.17c.293-.146 2.889-1.699 3.01-1.699.316 0 2.138 2.404 2.379 2.767.244-.023.486-.048.729-.048s.485.024.728.048c.681-.946 1.408-1.893 2.234-2.718l.145-.049c.121 0 2.72 1.529 3.012 1.699a.214.214 0 0 1 .098.17c0 .437-1.021 2.865-1.24 3.35.291.389.535.826.729 1.264.485.047 3.617.388 3.617.752v3.398z"/></svg>