<svg xmlns="http://www.w3.org/2000/svg" width="168" height="117.035"><path fill="none" stroke="#183F4F" stroke-width="2.378" stroke-linecap="round" stroke-linejoin="round" stroke-miterlimit="10" d="M24.453 109.979c3.842-5.438 2.385-13.211-.489-18.737-2.444-4.701-3.291-7.157-.504-11.766 1.517-2.508 3.25-4.901 5.05-7.213l-10.305.028 11.587-4.339-13.326-1.676 16.346-6.041s-.674-14.082 4.994-20.214c5.146-5.568 7.917-13.539 6.793-21.162-1.202-8.154-7.458-14.43-15.454-16.371a20.307 20.307 0 0 0-4.838-.57h.292a20.307 20.307 0 0 0-4.838.57C11.765 4.43 5.509 10.706 4.307 18.859 3.183 26.482 5.954 34.454 11.1 40.021c5.668 6.132 4.994 20.214 4.994 20.214h7.399"/><path fill="none" stroke="#183F4F" stroke-width=".471" stroke-linecap="round" stroke-linejoin="round" stroke-miterlimit="10" d="M34.138 24.393a4.195 4.195 0 0 0-4.195-4.195c-1.569 0-3.053.989-3.764 2.371-.393.764-.472 1.497-.344 2.203.34 1.877 3.153 1.609 3.15-.299a4.308 4.308 0 0 0-.461-1.917c-.674-1.348-2.041-2.358-3.764-2.358h-.021c-1.534 0-3.024.954-3.753 2.289a3.296 3.296 0 0 0-.394 2.073c.264 1.976 3.26 1.713 3.175-.279a4.402 4.402 0 0 0-.502-1.856c-.607-1.154-1.726-2.039-3.184-2.2a4.195 4.195 0 0 0-4.672 4.168"/><path fill="#183F4F" d="M25.073 107.028c-2.578 0-4.672 2.246-4.715 5.035h9.43c-.042-2.789-2.137-5.035-4.715-5.035"/><path fill="#183F4F" d="M22.271 114.561a1.043 1.043 0 0 1-1.039-1.039v-2.73c0-.571.468-1.039 1.039-1.039s1.039.468 1.039 1.039v2.73c0 .57-.469 1.039-1.039 1.039m5.571.071a1.043 1.043 0 0 1-1.039-1.039v-2.729c0-.571.468-1.039 1.039-1.039s1.039.468 1.039 1.039v2.729c0 .571-.468 1.039-1.039 1.039"/><path d="M66.353 26.05V2.458h3.36l7.526 11.936c1.715 2.765 3.115 5.25 4.201 7.666l.105-.035c-.28-3.15-.35-6.021-.35-9.696V2.458h2.87V26.05h-3.08l-7.491-11.971c-1.645-2.625-3.22-5.321-4.375-7.876l-.105.035c.175 2.975.21 5.811.21 9.731V26.05h-2.871zm35.21-11.061h-9.136v8.506h10.221v2.555h-13.3V2.458h12.776v2.555h-9.696v7.456h9.136v2.52zm8.889 11.061l-5.985-23.592h3.221l2.8 11.936c.7 2.94 1.33 5.881 1.75 8.156h.069c.386-2.345 1.121-5.146 1.926-8.191l3.15-11.901h3.186l2.87 11.971c.665 2.8 1.295 5.601 1.646 8.086h.07c.489-2.59 1.154-5.216 1.89-8.156l3.115-11.901h3.115l-6.686 23.592h-3.186l-2.976-12.286c-.734-3.01-1.225-5.321-1.539-7.701h-.07c-.385 2.346-.945 4.656-1.82 7.701l-3.361 12.286h-3.185zm-39.619 8.993h-7.176v-2.59h17.467v2.59h-7.21v21.002h-3.081V35.043zm32.271 8.961c0 8.086-4.936 12.426-10.956 12.426-6.266 0-10.606-4.865-10.606-12.006 0-7.491 4.621-12.392 10.92-12.392 6.477 0 10.642 4.936 10.642 11.972zm-18.341.35c0 5.076 2.73 9.591 7.561 9.591 4.831 0 7.562-4.445 7.562-9.801 0-4.726-2.451-9.626-7.526-9.626s-7.597 4.69-7.597 9.836zm42.456-.35c0 8.086-4.936 12.426-10.955 12.426-6.266 0-10.606-4.865-10.606-12.006 0-7.491 4.62-12.392 10.921-12.392 6.475 0 10.64 4.936 10.64 11.972zm-18.342.35c0 5.076 2.73 9.591 7.562 9.591 4.83 0 7.561-4.445 7.561-9.801 0-4.726-2.45-9.626-7.526-9.626-5.077 0-7.597 4.69-7.597 9.836zm22.26-11.901h3.08V53.49h10.082v2.556h-13.162V32.453zm15.435 19.882c1.364.875 3.324 1.54 5.425 1.54 3.115 0 4.936-1.646 4.936-4.025 0-2.171-1.261-3.466-4.445-4.656-3.851-1.399-6.23-3.43-6.23-6.72 0-3.675 3.045-6.406 7.63-6.406 2.381 0 4.166.56 5.182 1.155l-.84 2.485c-.736-.455-2.311-1.12-4.446-1.12-3.22 0-4.445 1.925-4.445 3.535 0 2.205 1.435 3.291 4.69 4.551 3.99 1.54 5.986 3.465 5.986 6.931 0 3.641-2.661 6.825-8.227 6.825-2.275 0-4.76-.7-6.021-1.54l.805-2.555z" fill="#3CB6AA"/><path d="M70.833 65.038h-7.176v-2.591h17.467v2.591h-7.21V86.04h-3.081V65.038zm32.271 8.961c0 8.086-4.936 12.426-10.956 12.426-6.266 0-10.606-4.865-10.606-12.006 0-7.491 4.621-12.392 10.92-12.392 6.477 0 10.642 4.936 10.642 11.972zm-18.341.35c0 5.076 2.73 9.591 7.561 9.591 4.831 0 7.562-4.445 7.562-9.801 0-4.726-2.451-9.626-7.526-9.626s-7.597 4.69-7.597 9.836zm34.194-9.311h-7.176v-2.591h17.467v2.591h-7.21V86.04h-3.081V65.038zm12.914-2.275c1.541-.28 3.781-.49 5.846-.49 3.256 0 5.391.63 6.826 1.926 1.155 1.05 1.855 2.66 1.855 4.515 0 3.081-1.961 5.146-4.41 5.986v.104c1.785.63 2.869 2.311 3.43 4.761.77 3.29 1.33 5.565 1.82 6.476h-3.15c-.385-.7-.91-2.695-1.54-5.636-.7-3.255-1.995-4.48-4.761-4.585h-2.87v10.22h-3.046V62.763zm3.046 10.746h3.115c3.255 0 5.321-1.785 5.321-4.48 0-3.045-2.206-4.376-5.426-4.376-1.471 0-2.486.105-3.011.245v8.611zm20.58 12.531V76.029l-7.491-13.582h3.501l3.325 6.511c.875 1.785 1.61 3.221 2.346 4.866h.07c.629-1.541 1.47-3.081 2.38-4.866l3.396-6.511h3.43l-7.875 13.547V86.04h-3.082zm-68.982 17.954c0 8.086-4.936 12.426-10.956 12.426-6.266 0-10.606-4.865-10.606-12.006 0-7.491 4.621-12.392 10.921-12.392 6.475 0 10.641 4.936 10.641 11.972zm-18.342.35c0 5.076 2.73 9.591 7.561 9.591 4.831 0 7.561-4.445 7.561-9.801 0-4.726-2.45-9.626-7.526-9.626s-7.596 4.69-7.596 9.836zm25.34-11.902v14.002c0 5.25 2.345 7.49 5.495 7.49 3.466 0 5.741-2.31 5.741-7.49V92.442h3.08v13.792c0 7.245-3.815 10.186-8.926 10.186-4.831 0-8.471-2.73-8.471-10.081V92.442h3.081zm24.079 2.591h-7.176v-2.591h17.467v2.591h-7.21v21.002h-3.081V95.033z" fill="#183F4F"/></svg>