<svg width="45" height="58" xmlns="http://www.w3.org/2000/svg"><path d="M22.818 1.57a1.771 1.771 0 00-1.169.511L2.17 21.561a1.771 1.771 0 000 2.503l19.48 19.48a1.771 1.771 0 002.503 0l19.48-19.48a1.771 1.771 0 000-2.504L24.153 2.081a1.771 1.771 0 00-1.335-.512zm.083 4.267l16.976 16.975L22.9 39.788 5.926 22.812zm-21.25 27.6v1.77a1.77 1.77 0 00.519 1.252l19.48 19.48a1.771 1.771 0 002.503 0l19.48-19.48a1.77 1.77 0 00.518-1.252 1.77 1.77 0 000-.083v-1.688h-1.77a1.77 1.77 0 00-1.252.52L22.9 52.181 4.674 33.955a1.77 1.77 0 00-1.252-.512v-.007z" color="#000" fill="#fff" style="font-variant-ligatures:normal;font-variant-position:normal;font-variant-caps:normal;font-variant-numeric:normal;font-variant-alternates:normal;font-variant-east-asian:normal;font-feature-settings:normal;font-variation-settings:normal;text-indent:0;text-decoration-line:none;text-decoration-style:solid;text-decoration-color:#000;text-transform:none;text-orientation:mixed;white-space:normal;shape-padding:0;shape-margin:0;inline-size:0;isolation:auto;mix-blend-mode:normal"/></svg>