<svg width="701" height="106" fill="none" xmlns="http://www.w3.org/2000/svg"><path fill-rule="evenodd" clip-rule="evenodd" d="M177.225 17.932a8.031 8.031 0 00-5.831 2.175c-1.581 1.482-2.514 3.49-2.58 5.666-.151 4.494 3.368 8.275 7.852 8.44a8.156 8.156 0 005.85-2.187 8.07 8.07 0 002.57-5.666c.152-4.493-3.366-8.27-7.861-8.428zm1.332 8.903c-1.997 0-3.611-1.08-3.611-2.405 0-1.337 1.614-2.412 3.611-2.412s3.614 1.075 3.614 2.412c0 1.324-1.619 2.405-3.614 2.405zm18.975 9.705c.059-.045.195-.165.177-.276-.451-2.82-4.651-16.492-7.831-19.78-.876-.896-1.577-1.779-2.997-2.61-11.501-6.702-38.787-10.746-40.065-10.931 0 0-.128-.027-.217.06-.069.067-.082.197-.082.197s-.105 5.654-.122 6.286c-2.786-.936-23.044-7.48-42.033-8.138C88.258.78 64.805-1.301 33.725 17.808l-.919.572C18.185 27.5 8.09 38.747 2.814 51.813c-1.655 4.112-3.881 13.39-1.675 22.12.95 3.815 2.722 7.65 5.11 11.082 5.4 7.755 14.46 12.902 24.215 13.77 13.774 1.233 24.204-4.954 27.914-16.538 2.55-7.992 0-19.72-9.778-25.703-7.953-4.87-16.505-3.763-21.466-.48-4.304 2.853-6.74 7.287-6.698 12.157.1 8.639 7.54 13.23 12.891 13.244 1.555 0 3.116-.27 4.876-.844a7.58 7.58 0 001.865-.83l.204-.119.128-.085-.043.025c1.22-.83 1.953-2.182 1.953-3.63a4.389 4.389 0 00-5.202-4.302l-.302.07-.41.125-.593.205c-1.232.302-2.155.329-2.352.336-.627-.04-3.707-.963-3.707-4.336v-.046c0-1.24.497-2.108.771-2.583.958-1.503 3.582-2.977 7.126-2.669 4.651.403 8.005 2.788 10.226 7.288 2.062 4.184 1.522 9.33-1.39 13.1-2.892 3.735-8.042 5.322-14.89 4.585-6.906-.764-12.744-4.738-16.014-10.924-3.2-6.048-3.375-13.218-.452-18.726 6.99-13.197 20.195-13.06 27.436-11.808C53.27 48.155 65.46 58.038 69.783 69.45c.698 1.819 1.054 3.261 1.365 4.58l.467 1.97 12.104 5.91c.26.127.348.17.452.093.125-.093.053-.35.053-.35-.075-.27-.25-.52-.53-3.907-.23-3.006-.698-11.235 3.445-15.313 1.609-1.594 4.06-3.016 5.995-3.472 7.934-1.938 17.237-.6 26.032 9.58 4.554 5.259 6.774 7.656 7.888 8.73 0 0 .253.24.388.35.147.121.243.223.458.343.367.204 15.125 6.998 15.125 6.998s.175.087.304-.073c.127-.157.006-.315.006-.315-.098-.112-9.356-12.077-7.708-21.928 1.298-7.848 7.543-7.137 16.182-6.161 2.82.329 6.03.698 9.354.772 9.28.059 19.276-1.655 25.437-4.35 3.986-1.733 6.53-2.886 8.123-4.335.574-.475.871-1.246 1.18-2.076l.218-.547c.257-.673.636-2.09.803-2.867.067-.342.145-.676-.138-.895-.258-.2-.853.158-.853.158-2.705 1.629-9.468 4.712-15.791 4.844-7.85.158-23.757-7.948-25.405-8.804-1.103-2.626-2.204-5.253-3.323-7.873 11.38 7.498 20.818 11.642 28.043 12.282 8.044.716 14.314-3.672 17.035-5.498a17.08 17.08 0 001.038-.757h.002zM165.25 25.754c.116-3.117 1.421-6.01 3.7-8.13 2.28-2.13 5.254-3.23 8.373-3.13 6.431.23 11.485 5.659 11.264 12.083-.121 3.117-1.426 6.01-3.699 8.125-2.28 2.141-5.248 3.241-8.381 3.136-6.424-.237-11.472-5.653-11.257-12.083z" fill="#fff"/><path d="M414.986 12.867c-11.933 0-18.496 10.088-18.496 17.063v8.953c0 10.27 8.391 16.635 16.173 16.635h27.317c3.442 0 4.162 2.253 4.162 4.154v5.778c0 .613-.124 6.162-4.162 6.162h-37.257c-3.702 0-6.378 2.576-6.378 6.101v1.597c0 3.512 2.676 6.071 6.378 6.071h39.282c10.269 0 16.894-7.144 16.894-18.21V57.51c0-10.392-7.466-15.038-14.879-15.038h-26.879c-4.046 0-5.88-3.036-5.88-5.181v-5.335c0-3.358 2.245-5.305 6.171-5.305h29.753c3.649 0 6.394-2.621 6.394-6.087V18.97c0-3.48-2.791-6.103-6.518-6.103h-32.075zm111.696 0c-3.527 0-6.369 2.866-6.369 6.394v45.742c0 3.665-2.99 6.61-6.609 6.61h-20.765a6.609 6.609 0 01-6.606-6.61V19.261a6.398 6.398 0 00-6.391-6.394h-2.009c-3.578 0-6.393 2.823-6.393 6.394v47.475c0 11.053 8.698 19.07 20.679 19.07h22.206c11.965 0 20.657-8.014 20.657-19.07V19.26c0-3.57-2.804-6.394-6.377-6.394h-2.023zm39.752 0c-11.927 0-18.51 10.088-18.51 17.063v8.953c0 10.27 8.408 16.635 16.195 16.635h27.309c3.447 0 4.171 2.253 4.171 4.154v5.778c0 .613-.125 6.162-4.171 6.162h-37.274c-3.686 0-6.377 2.576-6.377 6.101v1.597c0 3.512 2.691 6.071 6.377 6.071h39.296c10.271 0 16.927-7.144 16.927-18.21V57.51c0-10.392-7.488-15.038-14.901-15.038h-26.879c-4.057 0-5.885-3.036-5.885-5.181v-5.335c0-3.358 2.245-5.305 6.17-5.305h29.77c3.641 0 6.375-2.621 6.375-6.087V18.97c0-3.48-2.788-6.103-6.531-6.103h-32.062zm62.808 0c-3.541 0-6.216 2.624-6.216 6.104v60.337c0 3.463 2.613 6.07 6.076 6.07h48.082c3.703 0 6.378-2.56 6.378-6.07V77.71c0-3.524-2.675-6.1-6.378-6.1h-39.379V56.249h28.855c3.694 0 6.378-2.592 6.378-6.104v-1.594c0-3.528-2.684-6.087-6.378-6.087h-28.855V26.643h37.379c3.689 0 6.377-2.544 6.377-6.087V18.96c0-3.527-2.688-6.103-6.377-6.103h-45.942v.009zM220.541 41.588c-6.025 0-10.93 4.689-10.93 10.47v22.75c0 5.872 4.746 10.655 10.565 10.655h14.715c5.819 0 10.565-4.783 10.565-10.655v-22.75c0-5.779-4.907-10.47-10.93-10.47h-13.985zm-3.183 32.316V53.131c0-2.437 2-4.429 4.447-4.429h11.465c2.393 0 4.431 2.038 4.431 4.428v20.774a4.44 4.44 0 01-4.431 4.445h-11.551c-2.452 0-4.361-1.95-4.361-4.445zm61.422-32.585c-4.243 0-7.442 1.516-10.01 2.758-1.565.75-2.92 1.399-3.971 1.399-.476 0-.882-.215-1.097-.568l-.979-1.871c-.245-.492-1.226-1.455-2.439-1.455h-1.454c-1.399 0-2.517 1.256-2.517 2.788v57.704a3.207 3.207 0 003.234 3.235h1.259a3.24 3.24 0 003.251-3.235V82.928c0-.568.368-1.18.742-1.18 1.051 0 2.406.615 3.971 1.333 2.568 1.18 5.767 2.635 10.01 2.635h1.358c7.513 0 12.186-4.294 12.186-11.19V52.498c0-6.792-4.773-11.178-12.186-11.178h-1.358v-.002zm-14.721 32.136v-19.87c0-2.745 2.146-4.888 4.888-4.888h10.748c2.745 0 4.888 2.145 4.888 4.888v19.87c0 2.697-2.2 4.888-4.888 4.888h-10.748a4.896 4.896 0 01-4.888-4.888zm50.025-31.867c-6.026 0-10.916 4.689-10.916 10.47v22.58c0 5.856 4.753 10.822 10.362 10.822h15.184c1.877 0 3.234-1.3 3.234-3.067v-.995c0-1.778-1.357-3.052-3.234-3.052H316.24c-3.495 0-5.339-1.718-5.339-4.985v-6.606h22.502c3.619 0 5.759-2.208 5.759-5.948v-8.755c0-5.778-4.899-10.47-10.9-10.47h-14.178v.006zm-3.181 11.467c0-2.438 1.917-4.353 4.359-4.353h11.82c2.436 0 4.337 1.915 4.337 4.353v7.05h-20.518c.002-.92.002-7.05.002-7.05zm59.538-11.736c-4.229 0-7.421 1.516-9.997 2.745-1.602.753-2.971 1.412-4.09 1.412-.492 0-.691-.062-1.072-.724l-.89-1.624c-.511-1.027-1.38-1.546-2.552-1.546h-1.25c-1.511 0-2.614 1.178-2.614 2.788v37.85a3.212 3.212 0 003.243 3.235h1.25c1.793 0 3.256-1.457 3.256-3.235V53.585c0-2.684 2.192-4.888 4.875-4.888h10.752c2.692 0 4.883 2.204 4.883 4.888V82.22a3.216 3.216 0 003.235 3.235h1.264c1.793 0 3.25-1.457 3.25-3.235V52.496c0-6.792-4.775-11.177-12.193-11.177h-1.35zm323.891 29.469c3.275 0 5.883 2.662 5.883 5.993 0 3.38-2.611 6.015-5.91 6.015-3.275 0-5.937-2.635-5.937-6.015 0-3.329 2.662-5.993 5.937-5.993h.027zm-.027.93c-2.635 0-4.791 2.264-4.791 5.06 0 2.85 2.156 5.085 4.818 5.085 2.662.03 4.791-2.235 4.791-5.058s-2.129-5.087-4.791-5.087h-.027zm-1.119 8.548h-1.064v-6.682c.559-.08 1.091-.161 1.89-.161 1.014 0 1.678.212 2.076.505.4.29.615.742.615 1.385 0 .876-.586 1.409-1.304 1.624v.056c.586.105.984.638 1.119 1.625.161 1.04.317 1.438.425 1.65h-1.119c-.161-.212-.32-.825-.452-1.704-.161-.85-.586-1.173-1.438-1.173h-.745v2.875h-.003zm0-3.703h.772c.879 0 1.624-.317 1.624-1.145 0-.586-.425-1.172-1.624-1.172a4.7 4.7 0 00-.772.056v2.261z" fill="#fff"/></svg>