<svg fill="currentColor" width="95" height="95" xmlns="http://www.w3.org/2000/svg"><path d="M28.535 8.405C16.75 8.377 7.153 17.975 7.18 29.76c.029 11.785 9.648 21.403 21.433 21.43l5.298.014-.01-.001h.009l11.065.025c.006 2.81.025 11.843.036 16.362.028 11.785 9.647 21.404 21.431 21.432 11.785.029 21.382-9.568 21.354-21.353-.028-11.785-9.648-21.403-21.432-21.431l-5-.012-11.36-.025-.038-16.362C49.94 18.053 40.32 8.433 28.535 8.405zm-.013 5.041a16.68 16.68 0 012.049.137v18.151H12.35a16.633 16.633 0 01-.128-1.988 16.197 16.197 0 0116.3-16.3zm7.09 1.619a16.429 16.429 0 019.314 14.784l.037 16.338-16.336-.037a16.43 16.43 0 01-14.813-9.375h21.799v-21.71zm14.403 36.174l16.338.036c6.63.016 12.324 3.943 14.912 9.598H59.557v21.575a16.429 16.429 0 01-9.506-14.872l-.036-16.337zM64.597 65.91h18.059c.063.58.098 1.17.1 1.769a16.197 16.197 0 01-16.3 16.3 16.46 16.46 0 01-1.859-.113V65.91z" fill="#fff"/></svg>