<svg xmlns="http://www.w3.org/2000/svg" width="95.773" height="44.752"><path fill="#FFF" d="M73.541 0c-4.389 0-8.656 1.268-12.456 3.434-3.696 2.105-6.917 4.961-9.786 8.08a69.821 69.821 0 0 0-3.27 3.837 110.71 110.71 0 0 0-2.933 3.887c-.485.668-.967 1.338-1.45 2.009-.963 1.338-1.943 2.677-3.064 3.889a85.743 85.743 0 0 1-3.194 3.273c-2.724 2.647-5.631 5.163-8.842 7.205-2.539 1.614-5.509 3.152-8.592 3.152-8.267 0-15.678-6.555-15.678-16.532 0-9.976 7.126-15.392 15.678-15.392 4.955 0 9.336 2.114 13.587 5.772l-2.275 2.34 5.564 1.406 5.563 1.406-1.564-5.521-1.564-5.521-2.489 2.561c-4.349-3.89-9.754-7.004-16.537-7.004C9.121 2.28 0 10.262 0 22.519c0 11.687 9.121 20.237 19.384 20.237 4.246 0 8.357-1.265 12.002-3.411 3.268-1.927 6.121-4.468 8.74-7.194.884-.919 1.743-1.862 2.596-2.809 1.105-1.229 2.143-2.448 3.069-3.843l1.221-1.838c.749-1.127 1.441-2.244 2.244-3.34 1.479-2.02 3.029-3.99 4.697-5.857 2.798-3.133 5.968-6.048 9.703-8.026 2.963-1.569 6.242-2.448 9.6-2.448 11.688 0 18.243 8.124 18.243 18.528 0 9.692-6.271 17.673-17.103 17.673-6.191 0-11.619-1.679-17.337-6.623l2.649-3.221-5.66-.941-5.661-.941 2.015 5.373 2.017 5.373 2.251-2.736c5.541 4.986 11.582 8.277 19.441 8.277 13.111 0 21.662-9.977 21.662-22.519C95.773 9.121 86.938 0 73.541 0"/></svg>